<?xml version="1.0" encoding="utf-8"?>
<!-- Generator: Adobe Illustrator 26.3.1, SVG Export Plug-In . SVG Version: 6.00 Build 0)  -->
<svg version="1.1" id="Layer_1" xmlns="http://www.w3.org/2000/svg" xmlns:xlink="http://www.w3.org/1999/xlink" x="0px" y="0px"
	 viewBox="0 0 1000 749" style="enable-background:new 0 0 1000 749;" xml:space="preserve">
<style type="text/css">
	.st0{clip-path:url(#SVGID_00000023979960331896840680000000495763868588579228_);}
	.st1{fill:#9BB0C6;}
	.st2{fill:#C7B299;}
	.st3{fill:#9ECD5A;}
	.st4{fill:#A88B6C;}
	.st5{fill:none;stroke:#34B994;stroke-width:30.9082;stroke-miterlimit:10;}
	.st6{fill:#E64D3C;}
	.st7{fill:#C03B2B;}
	.st8{display:none;}
	.st9{display:inline;fill:none;stroke:#FFFFFF;stroke-width:30.9082;stroke-miterlimit:10;}
	.st10{display:inline;fill:none;stroke:#FFFFFF;stroke-width:61.8163;stroke-miterlimit:10;}
	.st11{display:inline;fill:none;stroke:#34B994;stroke-width:30.9082;stroke-miterlimit:10;}
</style>
<g>
	<g>
		<defs>
			<rect id="SVGID_1_" x="1" y="-0.5" width="1000" height="749"/>
		</defs>
		<clipPath id="SVGID_00000077287980765655057650000006887951064672474783_">
			<use xlink:href="#SVGID_1_"  style="overflow:visible;"/>
		</clipPath>
		<g style="clip-path:url(#SVGID_00000077287980765655057650000006887951064672474783_);">
			<g>
				<path class="st1" d="M0,382.6v164.6l2.1,3.9c2.3-0.3,4.6-0.5,6.9-0.8c57.9-6.1,115.7-1,171.9,15.2
					c42.4,12.2,82.2,30.3,118.9,53.8l104.5-57.7l-81.2-161L0,382.6z"/>
			</g>
			<g>
				<path class="st1" d="M55.7,609.6c-7,0-13.9,0.2-20.9,0.6l65.9,119.2l136.1-75.2c-23-12-47.5-21.9-73-29.2
					C128.1,614.7,91.8,609.6,55.7,609.6z"/>
			</g>
			<g>
				<polygon class="st1" points="431.3,546.7 723.9,384.9 640.6,233.2 353.3,392 				"/>
			</g>
			<g>
				<path class="st1" d="M73.6,744.3L1.3,613.4c-0.4,0.1-0.9,0.1-1.3,0.2V785L73.6,744.3z"/>
			</g>
			<g>
				<path class="st1" d="M908.4,85.3l-240.7,133l126.6,230.5l152-231.6c-11.7-9.4-21.7-21.2-29.4-35.1c-15.5-28-19.1-60.4-10.3-91.1
					C907.1,89.1,907.7,87.2,908.4,85.3z"/>
			</g>
			<g>
				<polygon class="st1" points="547.4,-0.9 652.8,191.2 735.7,145.3 712.8,-69.6 				"/>
			</g>
			<g>
				<path class="st1" d="M844.4,604.4L466.7,813.2c9,20,16.5,40.4,22.5,61.3h503.6L844.4,604.4z"/>
			</g>
			<g>
				<polygon class="st1" points="88.6,771.4 0,820.3 0,874.5 145.6,874.5 				"/>
			</g>
			<g>
				<polygon class="st2" points="1000,-125.5 997.4,-125.5 1000,-111.4 				"/>
			</g>
			<g>
				<path class="st1" d="M978.6,46.4c-42.9,23.7-58.5,77.9-34.8,120.7c12.4,22.4,33.1,37.4,56.1,43.2V38
					C992.7,39.8,985.5,42.6,978.6,46.4L978.6,46.4z"/>
			</g>
			<g>
				<path class="st1" d="M1000,483.1V241.9c-9.4-1.7-18.6-4.6-27.4-8.5L811.1,479.5l45.5,82.9L1000,483.1z"/>
			</g>
			<g>
				<polygon class="st1" points="0,351.6 329.2,370 625.8,206.1 518.6,11 0,226.2 				"/>
			</g>
			<g>
				<path class="st2" d="M355.7,874.5h68.8c-3.6-10.6-7.6-21-12.1-31.3L355.7,874.5z"/>
			</g>
			<g>
				<polygon class="st3" points="871.5,589.4 1000,823.5 1000,518.4 				"/>
			</g>
			<g>
				<polygon class="st1" points="250.2,88.9 503.7,-16.3 443.7,-125.5 75.9,-125.5 				"/>
			</g>
			<g>
				<polygon class="st1" points="220.4,101.2 36.1,-125.5 0,-125.5 0,192.7 				"/>
			</g>
			<g>
				<polygon class="st3" points="532.4,-28.2 709.4,-101.6 706.9,-125.5 479,-125.5 				"/>
			</g>
			<g>
				<path class="st1" d="M765.1,129.1L963.7,19.4l0,0l0,0l2.7-1.5l0,0c7.9-4.1,16-7.2,24.3-9.4l-24.7-134H847.6l-105,43.6
					L765.1,129.1z"/>
			</g>
			<g>
				<path class="st3" d="M453,785.4l376.6-208.1L738.8,412L328,639.1c2.2,1.7,4.4,3.3,6.5,5c47.4,37.2,86.3,83.1,115.7,136.2
					C451.1,782,452,783.7,453,785.4z"/>
			</g>
			<g>
				<polygon class="st2" points="739.2,-114 766.9,-125.5 738,-125.5 				"/>
			</g>
			<g>
				<path class="st4" d="M396.1,810.2c-31.3-56.7-75.3-103.7-128.2-137.9l-152.3,84.1l65.3,118.1h110.9l107.1-59.2
					C397.9,813.6,397,811.9,396.1,810.2z"/>
			</g>
			<circle class="st5" cx="56.2" cy="998" r="419.2"/>
			<g id="XMLID_1_">
				<path id="XMLID_5_" class="st6" d="M523.2,273c-36.3,0-65.8,29.4-65.8,65.8c0,11.7,3.1,22.6,8.5,32.1c0.9,1.6,1.8,3.1,2.8,4.6
					l54.5,94.8l54.5-94.8c0.8-1.2,1.6-2.6,2.3-3.9l0.5-0.8c5.3-9.5,8.5-20.4,8.5-32.1C589,302.4,559.5,273,523.2,273z M523.2,305.9
					c18.2,0,32.9,14.7,32.9,32.9c0,18.2-14.7,32.9-32.9,32.9s-32.9-14.7-32.9-32.9C490.3,320.6,505.1,305.9,523.2,305.9z"/>
				<path id="XMLID_8_" class="st7" d="M523.2,297.7c-22.7,0-41.1,18.4-41.1,41.1s18.4,41.1,41.1,41.1s41.1-18.4,41.1-41.1
					S545.9,297.7,523.2,297.7z M523.2,314.1c13.6,0,24.7,11,24.7,24.7c0,13.6-11,24.7-24.7,24.7c-13.6,0-24.7-11-24.7-24.7
					C498.6,325.2,509.6,314.1,523.2,314.1z"/>
			</g>
		</g>
	</g>
</g>
<g class="st8">
	<line class="st9" x1="-224.6" y1="172.8" x2="309.2" y2="1138.6"/>
	<line class="st9" x1="87.2" y1="1005.2" x2="1277.4" y2="347.4"/>
	<line class="st9" x1="-13.6" y1="810.2" x2="746.6" y2="390.1"/>
	<line class="st9" x1="413.9" y1="-211.8" x2="1020.5" y2="893"/>
	<line class="st9" x1="-279.4" y1="351.5" x2="332.8" y2="385.7"/>
	<line class="st9" x1="973.9" y1="31.4" x2="332.8" y2="385.7"/>
	<line class="st9" x1="425.4" y1="569.3" x2="332.8" y2="385.7"/>
	<line class="st9" x1="753.1" y1="162.2" x2="697.8" y2="-356.3"/>
	
		<ellipse transform="matrix(0.7071 -0.7071 0.7071 0.7071 211.397 758.7576)" class="st9" cx="1021.6" cy="124.2" rx="104.3" ry="104.3"/>
	<line class="st9" x1="1126.5" y1="66.3" x2="1505.2" y2="-143"/>
	<line class="st9" x1="1008.3" y1="18.6" x2="914.8" y2="-487.7"/>
	<line class="st9" x1="1308.2" y1="-39.5" x2="951.4" y2="-336.7"/>
	<line class="st9" x1="1073" y1="220.3" x2="1288.3" y2="609.8"/>
	<circle class="st10" cx="56.2" cy="998" r="419.2"/>
	<circle class="st11" cx="56.2" cy="998" r="419.2"/>
	<line class="st9" x1="1008.5" y1="-209" x2="-307.5" y2="337"/>
	<line class="st9" x1="238.5" y1="99" x2="12.5" y2="-179"/>
</g>
</svg>
